<svg xmlns="http://www.w3.org/2000/svg" viewBox="0 0 265.84 117.88"><g id="Layer_2" data-name="Layer 2"><g id="Layer_1-2" data-name="Layer 1"><path d="M.5.5H12V80.05H50.14v9.67H.5Z" style="fill:#fff;stroke:#fff;stroke-miterlimit:10"/><path d="M118.7,57.15c0,23.7-16.42,34-31.9,34-17.34,0-30.71-12.71-30.71-33,0-21.44,14-34,31.76-34C106.25,24.19,118.7,37.56,118.7,57.15Zm-50.83.67c0,14,8.07,24.61,19.46,24.61,11.11,0,19.45-10.45,19.45-24.88,0-10.85-5.42-24.62-19.19-24.62S67.87,45.64,67.87,57.82Z" style="fill:#fff;stroke:#fff;stroke-miterlimit:10"/><path d="M188.58,25.65c-.27,4.63-.53,9.79-.53,17.6v37.2c0,14.69-2.91,23.69-9.13,29.25-6.23,5.83-15.23,7.68-23.3,7.68-7.68,0-16.15-1.85-21.31-5.3l2.91-8.86a36.2,36.2,0,0,0,18.8,5c11.91,0,20.65-6.23,20.65-22.37V78.73h-.27c-3.57,6-10.46,10.72-20.38,10.72-15.89,0-27.27-13.5-27.27-31.24,0-21.71,14.16-34,28.86-34,11.11,0,17.2,5.83,20,11.12h.27l.53-9.66ZM176.53,50.93a16.57,16.57,0,0,0-.66-5.29c-2.12-6.75-7.81-12.31-16.28-12.31-11.12,0-19.06,9.4-19.06,24.22,0,12.57,6.35,23,18.93,23a17,17,0,0,0,16.15-11.91,20.35,20.35,0,0,0,.92-6.22Z" style="fill:#fff;stroke:#fff;stroke-miterlimit:10"/><path d="M265.34,57.15c0,23.7-16.41,34-31.9,34-17.34,0-30.71-12.71-30.71-33,0-21.44,14-34,31.77-34C252.9,24.19,265.34,37.56,265.34,57.15Zm-50.83.67c0,14,8.08,24.61,19.46,24.61,11.12,0,19.46-10.45,19.46-24.88,0-10.85-5.43-24.62-19.19-24.62S214.51,45.64,214.51,57.82Z" style="fill:#fff;stroke:#fff;stroke-miterlimit:10"/></g></g></svg>