<svg xmlns="http://www.w3.org/2000/svg" viewBox="0 0 548 315"><g id="Layer_2" data-name="Layer 2"><g id="Layer_1-2" data-name="Layer 1"><rect width="548" height="315" style="fill:#59717c"/><path d="M104.74,132.07a72.88,72.88,0,0,1,12-.94c6.2,0,10.73,1.44,13.61,4a13,13,0,0,1,4.25,10.15c0,4.39-1.3,7.85-3.74,10.37-3.32,3.53-8.72,5.33-14.84,5.33a21,21,0,0,1-5-.44V180h-6.26Zm6.26,23.4a21,21,0,0,0,5.19.51c7.56,0,12.17-3.68,12.17-10.37,0-6.41-4.54-9.51-11.45-9.51a26.11,26.11,0,0,0-5.91.51Z" style="fill:#fff;stroke:#fff;stroke-miterlimit:10"/><path d="M142.47,128.9h6.33V180h-6.33Z" style="fill:#fff;stroke:#fff;stroke-miterlimit:10"/><path d="M178.76,180l-.51-4.4H178a13,13,0,0,1-10.66,5.19c-7.06,0-10.66-5-10.66-10,0-8.42,7.49-13,21-13v-.72c0-2.88-.8-8.07-7.93-8.07a17.31,17.31,0,0,0-9.07,2.6l-1.44-4.18a21.66,21.66,0,0,1,11.45-3.1c10.66,0,13.25,7.28,13.25,14.26v13a48.32,48.32,0,0,0,.58,8.36Zm-.94-17.79c-6.91-.14-14.76,1.08-14.76,7.85,0,4.1,2.73,6,6,6a8.67,8.67,0,0,0,8.42-5.83,6.52,6.52,0,0,0,.36-2Z" style="fill:#fff;stroke:#fff;stroke-miterlimit:10"/><path d="M219,178.73a23.37,23.37,0,0,1-10,2c-10.51,0-17.35-7.13-17.35-17.79s7.35-18.5,18.72-18.5a21.1,21.1,0,0,1,8.79,1.8l-1.44,4.89a14.75,14.75,0,0,0-7.35-1.65c-8,0-12.31,5.9-12.31,13.17,0,8.07,5.18,13,12.1,13a18,18,0,0,0,7.77-1.73Z" style="fill:#fff;stroke:#fff;stroke-miterlimit:10"/><path d="M229.51,163.75c.15,8.57,5.62,12.1,12,12.1a22.93,22.93,0,0,0,9.65-1.8l1.08,4.54a28.41,28.41,0,0,1-11.6,2.16c-10.73,0-17.14-7.06-17.14-17.57s6.2-18.8,16.35-18.8c11.38,0,14.4,10,14.4,16.42a24.32,24.32,0,0,1-.21,2.95Zm18.58-4.53c.07-4-1.65-10.3-8.78-10.3-6.41,0-9.22,5.9-9.72,10.3Z" style="fill:#fff;stroke:#fff;stroke-miterlimit:10"/><path d="M262.06,128.9h6.33v21.75h.15a11.73,11.73,0,0,1,4.53-4.47,13.08,13.08,0,0,1,6.48-1.8c4.68,0,12.17,2.88,12.17,14.91V180h-6.33V160c0-5.62-2.09-10.37-8.07-10.37a9.1,9.1,0,0,0-8.49,6.34,7.46,7.46,0,0,0-.44,3v21h-6.33Z" style="fill:#fff;stroke:#fff;stroke-miterlimit:10"/><path d="M333.55,162.31c0,12.89-8.92,18.51-17.35,18.51-9.43,0-16.7-6.91-16.7-17.93,0-11.67,7.63-18.51,17.28-18.51C326.79,144.38,333.55,151.66,333.55,162.31Zm-27.65.36c0,7.64,4.4,13.4,10.59,13.4s10.58-5.69,10.58-13.54c0-5.91-2.95-13.39-10.44-13.39S305.9,156.05,305.9,162.67Z" style="fill:#fff;stroke:#fff;stroke-miterlimit:10"/><path d="M341.54,128.9h6.34V180h-6.34Z" style="fill:#fff;stroke:#fff;stroke-miterlimit:10"/><path d="M388.63,128.9V171c0,3.09.08,6.62.29,9h-5.69L383,174h-.15c-1.94,3.89-6.19,6.84-11.88,6.84-8.42,0-14.9-7.13-14.9-17.71-.08-11.6,7.12-18.73,15.62-18.73,5.33,0,8.93,2.52,10.51,5.33h.15V128.9Zm-6.33,30.46a11.47,11.47,0,0,0-.29-2.66,9.32,9.32,0,0,0-9.15-7.35c-6.55,0-10.44,5.76-10.44,13.47,0,7.05,3.46,12.89,10.3,12.89a9.53,9.53,0,0,0,9.29-7.56,11.35,11.35,0,0,0,.29-2.74Z" style="fill:#fff;stroke:#fff;stroke-miterlimit:10"/><path d="M402.67,163.75c.15,8.57,5.62,12.1,11.95,12.1a22.86,22.86,0,0,0,9.65-1.8l1.08,4.54a28.36,28.36,0,0,1-11.59,2.16c-10.73,0-17.14-7.06-17.14-17.57s6.2-18.8,16.35-18.8c11.38,0,14.4,10,14.4,16.42a22,22,0,0,1-.22,2.95Zm18.58-4.53c.07-4-1.66-10.3-8.79-10.3-6.4,0-9.21,5.9-9.72,10.3Z" style="fill:#fff;stroke:#fff;stroke-miterlimit:10"/><path d="M435.21,156.05c0-4.11-.07-7.63-.28-10.87h5.54l.22,6.84H441c1.59-4.68,5.41-7.64,9.65-7.64a7,7,0,0,1,1.8.22v6a9.09,9.09,0,0,0-2.16-.22c-4.46,0-7.63,3.38-8.49,8.14a17.13,17.13,0,0,0-.29,2.95V180h-6.27Z" style="fill:#fff;stroke:#fff;stroke-miterlimit:10"/></g></g></svg>