<svg xmlns="http://www.w3.org/2000/svg" viewBox="0 0 465 465"><g id="Layer_2" data-name="Layer 2"><g id="Layer_1-2" data-name="Layer 1"><circle cx="232.5" cy="232.5" r="232.5" style="fill:#364953"/><path d="M107.16,177.78h11.51v79.56h38.12V267H107.16Z" style="fill:#fff;stroke:#fff;stroke-miterlimit:10"/><path d="M225.35,234.44c0,23.69-16.41,34-31.9,34-17.34,0-30.71-12.7-30.71-33,0-21.44,14-34,31.77-34C212.91,201.48,225.35,214.85,225.35,234.44Zm-50.83.66c0,14,8.08,24.62,19.46,24.62,11.12,0,19.46-10.46,19.46-24.89,0-10.85-5.43-24.62-19.19-24.62S174.52,222.92,174.52,235.1Z" style="fill:#fff;stroke:#fff;stroke-miterlimit:10"/><path d="M295.24,202.93c-.27,4.64-.53,9.8-.53,17.61v37.19c0,14.69-2.92,23.7-9.14,29.26-6.22,5.82-15.22,7.67-23.29,7.67-7.68,0-16.15-1.85-21.31-5.29l2.91-8.87a36.07,36.07,0,0,0,18.79,5c11.92,0,20.65-6.22,20.65-22.37V256h-.26c-3.58,6-10.46,10.72-20.39,10.72-15.88,0-27.26-13.5-27.26-31.24,0-21.7,14.16-34,28.85-34,11.12,0,17.21,5.82,20,11.12h.26l.53-9.67Zm-12.05,25.29a16.6,16.6,0,0,0-.66-5.3c-2.12-6.75-7.81-12.31-16.28-12.31-11.12,0-19.06,9.4-19.06,24.22,0,12.58,6.35,23,18.93,23A17,17,0,0,0,282.26,246a20,20,0,0,0,.93-6.22Z" style="fill:#fff;stroke:#fff;stroke-miterlimit:10"/><path d="M372,234.44c0,23.69-16.41,34-31.9,34-17.34,0-30.71-12.7-30.71-33,0-21.44,14-34,31.77-34C359.56,201.48,372,214.85,372,234.44Zm-50.83.66c0,14,8.08,24.62,19.46,24.62,11.12,0,19.46-10.46,19.46-24.89,0-10.85-5.43-24.62-19.2-24.62S321.17,222.92,321.17,235.1Z" style="fill:#fff;stroke:#fff;stroke-miterlimit:10"/></g></g></svg>