<svg xmlns="http://www.w3.org/2000/svg" viewBox="0 0 276.33 154.97"><g id="Layer_2" data-name="Layer 2"><g id="Layer_1-2" data-name="Layer 1"><rect width="276.33" height="154.97" style="fill:#6e7b84"/><circle cx="138.17" cy="77.48" r="51.15" style="fill:#364953"/><path d="M146.54,58.59c-7.41.88-12.87,7.1-17.58,12.89a37.33,37.33,0,0,0-5.54,8.15,37.48,37.48,0,0,0-2.26,8.71c-.48,2.72-.94,5.64.26,8.13a9.63,9.63,0,0,0,5,4.39c3.71,1.63,7.86,1.88,11.91,2,4.53.19,9.39.22,13.18-2.28a6.77,6.77,0,0,0,2.6-2.88,9.92,9.92,0,0,0,.58-3.24l.32-5a5.85,5.85,0,0,0-.5-3.49,5.28,5.28,0,0,0-3.27-1.93c-1.73-.46-3.75-.69-5.15.42s-1.67,3.35-2.22,5.17a8.13,8.13,0,0,1-4.52,5.18,6,6,0,0,1-6.54-1.32c-2.55-2.83-1.24-7.34.61-10.68,2-3.65,4.56-7.16,8.17-9.22,3.38-1.93,7.4-2.45,10.86-4.22,1.93-1,3.87-2.86,3.45-5a6.11,6.11,0,0,0-1-2.09,13.08,13.08,0,0,0-3.81-4.26c-1.64-1-4-1.12-5.34.24" style="fill:#fff"/><path d="M124.31,55.86a16,16,0,0,0,1.56,22.57,11.55,11.55,0,0,0,6.48,3,7.38,7.38,0,0,0,6.45-2.57,5.48,5.48,0,0,0,0-6.71c-1.8-2.08-5.12-2.28-6.92-4.36-1.21-1.45-1.46-3.43-1.61-5.28S130,58.69,129,57.13s-3.31-2.46-4.8-1.35" style="fill:#fff"/><path d="M148,52.09a2.88,2.88,0,0,0-2.36,1.59,10.32,10.32,0,0,0-1.19,5.56,10.6,10.6,0,0,0,.92,4.47,5.11,5.11,0,0,0,3.43,2.83,3.43,3.43,0,0,0,3.81-1.85,19.9,19.9,0,0,0,.48-2.63,9.52,9.52,0,0,0,.53-2.15,4.26,4.26,0,0,0-.58-1.77l-1.49-2.88a7.9,7.9,0,0,0-1.64-2.47,2.74,2.74,0,0,0-2.75-.69" style="fill:#fff"/><path d="M137.61,54.37a2.05,2.05,0,0,1,.87-1.89,3.9,3.9,0,0,1,5.14,1.21,5.36,5.36,0,0,1,.31,1.87l.2,3.77c.07,1.35.1,2.85-.69,3.86a2.92,2.92,0,0,1-1.14.85A4,4,0,0,1,137,61.33a5,5,0,0,1-.18-.69c-.1-.72-.16-1.44-.19-2.17a12,12,0,0,1-.13-1.7A7,7,0,0,1,138.19,53" style="fill:#fff"/></g></g></svg>